<svg width="52" height="56" viewBox="0 0 52 56" fill="none" xmlns="http://www.w3.org/2000/svg">
<path d="M51.9428 46.3538C50.2233 46.4342 48.5039 46.5146 46.7521 46.5963C48.6482 50.3358 48.484 52.575 46.2333 54.2299C44.4566 55.5368 41.9708 55.4023 40.3596 53.9133C38.3739 52.0774 38.3453 49.8495 40.3907 46.6893H15.7736C16.1443 48.0175 17.009 49.5279 16.8174 50.8849C16.6333 52.1855 15.5795 53.6243 14.4995 54.4724C12.79 55.8144 10.1773 55.1862 8.75894 53.5061C7.08803 51.5258 7.23359 49.4424 9.39098 46.6315C5.63484 45.527 5.09611 42.7072 5.14215 39.2416C5.28149 28.6613 5.1944 18.0785 5.19191 7.49701C5.19191 3.33024 4.83359 2.8339 0.847278 1.38257C0.554899 1.27576 0.282426 1.11618 0 0.980466C0.102022 0.666325 0.206532 0.352184 0.309798 0.039299C1.23919 0.122232 2.25816 -0.0147333 3.08305 0.325796C6.56174 1.76331 6.85288 4.84817 6.57916 8.36027H51.8743V32.896C36.8821 34.3196 21.8812 35.7446 6.60529 37.1947C6.60529 38.4173 6.58787 39.503 6.60902 40.5887C6.66874 43.7213 7.9776 45.0633 11.1191 45.0683C22.0691 45.0897 33.019 45.0771 43.9689 45.0771C46.1748 45.0771 48.3807 45.0557 50.5854 45.0972C51.0594 45.106 51.5285 45.3498 52 45.4842C51.9801 45.7732 51.9614 46.0622 51.9415 46.3513L51.9428 46.3538ZM6.72224 27.3909V35.6101C10.0255 35.2935 13.1882 34.9907 16.4031 34.6828V27.3909H6.72224ZM6.73841 10.1961V16.8534H16.372V10.1961H6.73841ZM18.074 16.8308H27.7785V10.2225H18.074V16.8308ZM29.4532 10.2112V16.8383H39.0582V10.2112H29.4532ZM50.4597 16.8949V10.2464H40.8336V16.8949H50.4597ZM16.4305 18.8702H6.72597V25.4671H16.4305V18.8702ZM18.0852 18.7885V25.4584H27.7288V18.7885H18.0852ZM39.1216 25.5074V18.8287H29.4706V25.5074H39.1216ZM50.497 18.8903H40.7988V25.4458H50.497V18.8903ZM27.7238 33.5758V27.4136H18.1425V34.5597C21.447 34.2204 24.5586 33.9012 27.7238 33.5758ZM39.154 27.4739H29.4333V33.4363C32.7403 33.1284 35.9104 32.8344 39.154 32.5328V27.4739ZM50.5966 27.4525H40.8485V32.3179C43.7673 32.0855 46.4995 31.9498 49.2006 31.5816C49.7281 31.51 50.3303 30.6015 50.5443 29.9594C50.777 29.2582 50.5978 28.4176 50.5978 27.4525H50.5966ZM9.19689 50.3823C9.16081 52.1126 10.5866 53.6268 12.2625 53.6393C13.9285 53.6519 15.4563 52.1403 15.3555 50.425C15.2498 48.6206 14.3204 47.4771 12.4218 47.3867C10.609 47.3 9.23421 48.5942 9.19689 50.3823ZM43.4961 47.3829C41.6983 47.3829 40.3086 48.7463 40.4168 50.5243C40.5288 52.3664 41.6087 53.4307 43.3866 53.618C45.024 53.7901 46.558 52.2282 46.5966 50.5193C46.6364 48.7387 45.2952 47.3829 43.4961 47.3829Z" fill="white"/>
</svg>
